<?xml version="1.0" encoding="UTF-8"?>
<!DOCTYPE svg PUBLIC "-//W3C//DTD SVG 1.1//EN" "http://www.w3.org/Graphics/SVG/1.1/DTD/svg11.dtd">
<!-- Creator: CorelDRAW -->
<svg xmlns="http://www.w3.org/2000/svg" xml:space="preserve" width="259px" height="50px" version="1.1" style="shape-rendering:geometricPrecision; text-rendering:geometricPrecision; image-rendering:optimizeQuality; fill-rule:evenodd; clip-rule:evenodd"
viewBox="0 0 25807000 4973000"
 xmlns:xlink="http://www.w3.org/1999/xlink"
 xmlns:xodm="http://www.corel.com/coreldraw/odm/2003">
 <defs>
  <style type="text/css">
   <![CDATA[
    .fil0 {fill:#00539F;fill-rule:nonzero}
   ]]>
  </style>
 </defs>
 <g id="Layer_x0020_1">
  <metadata id="CorelCorpID_0Corel-Layer"/>
  <path class="fil0" d="M9270000 4965000l-134000 0 0 -714000 134000 0 0 714000zm-4640000 0c0,-1390000 1932000,-2026000 3047000,-2189000 -1120000,0 -2995000,106000 -3841000,947000 -840000,-841000 -2721000,-947000 -3836000,-947000 1111000,163000 3043000,799000 3043000,2189000l1587000 0zm-794000 -2757000c255000,0 461000,206000 461000,459000 0,253000 -206000,458000 -461000,458000 -254000,0 -461000,-205000 -461000,-458000 0,-253000 207000,-459000 461000,-459000zm-124000 -1496000c-857000,38000 -1630000,483000 -2236000,1195000 630000,-592000 1404000,-927000 2245000,-961000 846000,-38000 1779000,129000 2457000,665000 -669000,-655000 -1606000,-937000 -2466000,-899000zm-1140000 -497000c-865000,339000 -1500000,1065000 -1865000,2012000 433000,-832000 1105000,-1443000 1956000,-1777000 856000,-335000 1861000,-378000 2745000,-68000 -918000,-439000 -1971000,-506000 -2836000,-167000zm2711000 368000c870000,320000 1520000,1037000 1909000,1969000 -452000,-817000 -1135000,-1415000 -1995000,-1735000 -861000,-315000 -1875000,-453000 -2755000,-123000 909000,-460000 1971000,-436000 2841000,-111000zm4905000 1299000l-625000 -779000 -428000 0 0 1931000 476000 0 0 -1195000 577000 707000 577000 -707000 0 1195000 480000 0 0 -1931000 -432000 0 -625000 779000zm1923000 329000l779000 0 0 -358000 -779000 0 0 -391000 817000 0 0 -359000 -1302000 0 0 1931000 1326000 0 0 -364000 -841000 0 0 -459000zm1995000 430000l-360000 0 0 -1146000 360000 0c337000,0 562000,234000 562000,574000 0,334000 -225000,572000 -562000,572000zm682000 -1337000c-240000,-182000 -490000,-201000 -803000,-201000l-725000 0 0 1931000 725000 0c285000,0 510000,-6000 726000,-144000 299000,-191000 457000,-477000 457000,-821000 0,-317000 -129000,-579000 -380000,-765000zm683000 1730000l500000 0 0 -1931000 -500000 0 0 1931000zm1298000 -965000c0,-369000 240000,-598000 635000,-598000 211000,0 432000,71000 644000,210000l0 -454000c-212000,-105000 -438000,-158000 -678000,-158000 -678000,0 -1106000,411000 -1106000,1000000 0,291000 111000,549000 303000,730000 188000,177000 447000,273000 755000,273000 269000,0 514000,-67000 745000,-201000l0 -450000c-231000,163000 -471000,244000 -706000,244000 -366000,0 -592000,-238000 -592000,-596000zm2548000 592000c-322000,0 -558000,-244000 -558000,-592000 0,-350000 236000,-594000 558000,-594000 317000,0 553000,244000 553000,594000 0,348000 -236000,592000 -553000,592000zm0 -1592000c-312000,0 -558000,92000 -755000,277000 -197000,187000 -303000,436000 -303000,723000 0,286000 106000,534000 303000,721000 197000,186000 443000,282000 755000,282000 307000,0 558000,-96000 755000,-282000 197000,-187000 303000,-430000 303000,-721000 0,-287000 -106000,-536000 -303000,-723000 -197000,-185000 -448000,-277000 -755000,-277000zm1981000 1157000l-486000 -1123000 -519000 0 885000 1949000 211000 0 947000 -1949000 -529000 0 -509000 1123000zm1658000 -15000l779000 0 0 -358000 -779000 0 0 -391000 817000 0 0 -359000 -1302000 0 0 1931000 1326000 0 0 -364000 -841000 0 0 -459000zm1880000 -315000l-236000 0 0 -453000 236000 0c178000,0 264000,85000 264000,224000 0,153000 -82000,229000 -264000,229000zm663000 478000c-58000,-125000 -135000,-205000 -231000,-243000 231000,-106000 342000,-258000 342000,-469000 0,-387000 -255000,-559000 -779000,-559000l-716000 0 0 1931000 485000 0 0 -785000c25000,0 38000,-4000 58000,-4000 193000,0 279000,57000 356000,235000l245000 554000 548000 0 -308000 -660000zm263000 2007000c-4000,7000 -8000,13000 -13000,16000 -4000,2000 -10000,4000 -17000,4000 -6000,0 -14000,-3000 -22000,-8000 -8000,-5000 -18000,-10000 -29000,-17000 -11000,-6000 -24000,-12000 -39000,-17000 -15000,-5000 -33000,-7000 -53000,-7000 -19000,0 -35000,2000 -48000,6000 -14000,5000 -26000,11000 -35000,19000 -9000,8000 -16000,17000 -21000,28000 -5000,11000 -7000,23000 -7000,36000 0,17000 5000,31000 14000,42000 10000,12000 22000,21000 38000,29000 15000,8000 33000,15000 52000,21000 20000,7000 40000,13000 61000,20000 20000,7000 41000,16000 60000,25000 20000,9000 38000,21000 53000,36000 16000,14000 28000,31000 37000,52000 10000,21000 14000,46000 14000,76000 0,32000 -5000,62000 -16000,90000 -11000,28000 -27000,53000 -48000,74000 -22000,21000 -48000,37000 -78000,49000 -31000,12000 -66000,18000 -105000,18000 -23000,0 -45000,-2000 -68000,-6000 -22000,-5000 -43000,-11000 -63000,-19000 -20000,-9000 -39000,-19000 -57000,-30000 -17000,-12000 -33000,-24000 -47000,-39000l39000 -63000c3000,-5000 8000,-9000 13000,-12000 5000,-3000 10000,-5000 17000,-5000 8000,0 17000,4000 26000,11000 10000,6000 21000,14000 34000,22000 13000,8000 29000,16000 46000,22000 18000,7000 39000,11000 64000,11000 37000,0 67000,-9000 87000,-27000 21000,-18000 32000,-44000 32000,-78000 0,-18000 -5000,-34000 -14000,-46000 -10000,-11000 -22000,-21000 -38000,-29000 -15000,-8000 -33000,-15000 -53000,-21000 -19000,-5000 -39000,-12000 -60000,-18000 -20000,-7000 -40000,-15000 -60000,-24000 -20000,-9000 -37000,-21000 -53000,-36000 -15000,-15000 -28000,-33000 -37000,-55000 -10000,-23000 -14000,-50000 -14000,-83000 0,-26000 5000,-51000 15000,-76000 11000,-24000 26000,-46000 46000,-65000 20000,-19000 44000,-35000 73000,-46000 29000,-12000 62000,-18000 99000,-18000 42000,0 81000,7000 117000,20000 35000,13000 66000,32000 91000,55000l-33000 63000zm-558000 -130000l0 106000 -316000 0 0 198000 249000 0 0 102000 -249000 0 0 202000 316000 0 0 106000 -450000 0 0 -714000 450000 0zm-662000 546000c8000,0 14000,3000 19000,8000l53000 57000c-29000,36000 -65000,64000 -107000,83000 -43000,19000 -93000,28000 -153000,28000 -53000,0 -100000,-9000 -143000,-27000 -42000,-18000 -78000,-43000 -108000,-75000 -30000,-33000 -53000,-71000 -69000,-116000 -16000,-45000 -24000,-94000 -24000,-147000 0,-53000 9000,-102000 27000,-147000 18000,-45000 43000,-83000 75000,-115000 32000,-33000 71000,-58000 116000,-76000 45000,-18000 94000,-27000 149000,-27000 53000,0 99000,9000 139000,26000 39000,17000 73000,39000 102000,67000l-45000 62000c-3000,4000 -6000,7000 -10000,10000 -4000,3000 -10000,5000 -17000,5000 -8000,0 -15000,-3000 -23000,-9000 -8000,-6000 -18000,-12000 -30000,-19000 -13000,-7000 -28000,-14000 -47000,-20000 -18000,-6000 -42000,-8000 -70000,-8000 -34000,0 -65000,5000 -93000,17000 -28000,12000 -52000,28000 -73000,50000 -20000,22000 -36000,48000 -47000,79000 -11000,32000 -17000,67000 -17000,105000 0,40000 6000,76000 17000,107000 11000,32000 27000,58000 46000,79000 20000,22000 42000,38000 69000,50000 26000,11000 54000,17000 85000,17000 18000,0 34000,-1000 49000,-3000 15000,-2000 28000,-5000 40000,-10000 13000,-4000 24000,-9000 35000,-16000 11000,-7000 22000,-15000 33000,-25000 4000,-3000 7000,-6000 11000,-7000 3000,-2000 7000,-3000 11000,-3000zm-703000 168000l-133000 0 0 -714000 133000 0 0 714000zm-965000 -714000l108000 0c11000,0 21000,3000 28000,9000 7000,5000 12000,13000 16000,21000l168000 436000c6000,14000 11000,30000 16000,47000 5000,17000 10000,34000 15000,53000 7000,-38000 17000,-71000 28000,-100000l167000 -436000c3000,-7000 8000,-14000 16000,-20000 7000,-7000 17000,-10000 28000,-10000l107000 0 -288000 714000 -120000 0 -289000 -714000zm-458000 340000l83000 0c25000,0 47000,-3000 66000,-9000 18000,-7000 34000,-15000 46000,-26000 12000,-11000 21000,-24000 27000,-40000 5000,-15000 8000,-31000 8000,-49000 0,-37000 -11000,-64000 -35000,-84000 -24000,-19000 -61000,-29000 -110000,-29000l-85000 0 0 237000zm0 95000l0 279000 -132000 0 0 -714000 217000 0c49000,0 91000,5000 125000,15000 35000,10000 64000,25000 86000,43000 22000,18000 38000,39000 49000,65000 10000,25000 15000,52000 15000,83000 0,24000 -3000,46000 -10000,68000 -7000,21000 -18000,41000 -31000,58000 -13000,18000 -30000,33000 -49000,46000 -20000,13000 -42000,24000 -67000,32000 17000,9000 31000,23000 43000,41000l179000 263000 -119000 0c-12000,0 -22000,-2000 -30000,-7000 -8000,-4000 -15000,-11000 -20000,-19000l-150000 -229000c-6000,-9000 -12000,-15000 -19000,-18000 -7000,-4000 -17000,-6000 -30000,-6000l-57000 0zm-296000 -435000l0 106000 -317000 0 0 198000 249000 0 0 102000 -249000 0 0 202000 317000 0 0 106000 -451000 0 0 -714000 451000 0zm-658000 130000c-4000,7000 -8000,13000 -13000,16000 -5000,2000 -10000,4000 -17000,4000 -6000,0 -14000,-3000 -22000,-8000 -8000,-5000 -18000,-10000 -29000,-17000 -11000,-6000 -24000,-12000 -39000,-17000 -15000,-5000 -33000,-7000 -53000,-7000 -19000,0 -35000,2000 -49000,6000 -13000,5000 -25000,11000 -34000,19000 -10000,8000 -17000,17000 -21000,28000 -5000,11000 -7000,23000 -7000,36000 0,17000 5000,31000 14000,42000 9000,12000 22000,21000 37000,29000 16000,8000 33000,15000 53000,21000 20000,7000 40000,13000 61000,20000 20000,7000 40000,16000 60000,25000 20000,9000 37000,21000 53000,36000 15000,14000 28000,31000 37000,52000 10000,21000 14000,46000 14000,76000 0,32000 -5000,62000 -16000,90000 -11000,28000 -27000,53000 -49000,74000 -21000,21000 -47000,37000 -77000,49000 -31000,12000 -66000,18000 -106000,18000 -22000,0 -45000,-2000 -67000,-6000 -22000,-5000 -43000,-11000 -63000,-19000 -20000,-9000 -39000,-19000 -57000,-30000 -18000,-12000 -33000,-24000 -47000,-39000l38000 -63000c4000,-5000 8000,-9000 13000,-12000 6000,-3000 11000,-5000 17000,-5000 9000,0 18000,4000 27000,11000 10000,6000 21000,14000 34000,22000 13000,8000 28000,16000 46000,22000 17000,7000 39000,11000 63000,11000 38000,0 67000,-9000 88000,-27000 21000,-18000 31000,-44000 31000,-78000 0,-18000 -4000,-34000 -14000,-46000 -9000,-11000 -22000,-21000 -37000,-29000 -15000,-8000 -33000,-15000 -53000,-21000 -20000,-5000 -40000,-12000 -60000,-18000 -21000,-7000 -41000,-15000 -60000,-24000 -20000,-9000 -38000,-21000 -53000,-36000 -16000,-15000 -28000,-33000 -37000,-55000 -10000,-23000 -15000,-50000 -15000,-83000 0,-26000 6000,-51000 16000,-76000 10000,-24000 26000,-46000 45000,-65000 20000,-19000 45000,-35000 74000,-46000 29000,-12000 62000,-18000 99000,-18000 42000,0 81000,7000 117000,20000 35000,13000 65000,32000 90000,55000l-32000 63000zm-1099000 475000l286000 0 0 109000 -419000 0 0 -714000 133000 0 0 605000zm-722000 -160000l228000 0 -87000 -238000c-4000,-10000 -8000,-23000 -13000,-37000 -5000,-14000 -9000,-30000 -14000,-47000 -5000,17000 -9000,33000 -14000,47000 -4000,15000 -8000,27000 -13000,38000l-87000 237000zm462000 269000l-102000 0c-12000,0 -21000,-3000 -29000,-8000 -7000,-6000 -12000,-13000 -16000,-22000l-53000 -145000 -296000 0 -53000 145000c-3000,8000 -8000,15000 -16000,21000 -7000,6000 -17000,9000 -28000,9000l-103000 0 280000 -714000 136000 0 280000 714000zm-856000 -168000c7000,0 14000,3000 19000,8000l52000 57000c-29000,36000 -64000,64000 -107000,83000 -42000,19000 -93000,28000 -152000,28000 -53000,0 -101000,-9000 -143000,-27000 -42000,-18000 -78000,-43000 -108000,-75000 -30000,-33000 -53000,-71000 -69000,-116000 -16000,-45000 -24000,-94000 -24000,-147000 0,-53000 9000,-102000 27000,-147000 17000,-45000 42000,-83000 75000,-115000 32000,-33000 70000,-58000 115000,-76000 45000,-18000 95000,-27000 149000,-27000 53000,0 100000,9000 139000,26000 40000,17000 74000,39000 102000,67000l-44000 62000c-3000,4000 -6000,7000 -10000,10000 -5000,3000 -10000,5000 -17000,5000 -8000,0 -16000,-3000 -24000,-9000 -8000,-6000 -18000,-12000 -30000,-19000 -12000,-7000 -27000,-14000 -46000,-20000 -19000,-6000 -42000,-8000 -71000,-8000 -33000,0 -64000,5000 -92000,17000 -28000,12000 -53000,28000 -73000,50000 -20000,22000 -36000,48000 -47000,79000 -12000,32000 -17000,67000 -17000,105000 0,40000 5000,76000 17000,107000 11000,32000 26000,58000 46000,79000 19000,22000 42000,38000 68000,50000 27000,11000 55000,17000 85000,17000 18000,0 35000,-1000 50000,-3000 14000,-2000 28000,-5000 40000,-10000 12000,-4000 24000,-9000 35000,-16000 11000,-7000 22000,-15000 33000,-25000 3000,-3000 7000,-6000 10000,-7000 4000,-2000 8000,-3000 12000,-3000zm-703000 168000l-134000 0 0 -714000 134000 0 0 714000zm-860000 -713000c4000,1000 8000,2000 11000,3000 3000,2000 6000,4000 9000,6000 3000,3000 6000,7000 10000,12000l375000 477000c-1000,-11000 -2000,-23000 -3000,-34000 0,-11000 -1000,-21000 -1000,-31000l0 -434000 117000 0 0 714000 -68000 0c-11000,0 -19000,-1000 -26000,-5000 -7000,-3000 -14000,-9000 -21000,-17000l-373000 -476000c1000,11000 2000,21000 2000,31000 1000,11000 1000,20000 1000,29000l0 438000 -117000 0 0 -714000 70000 0c6000,0 11000,1000 14000,1000zm-292000 713000l-133000 0 0 -714000 133000 0 0 714000zm-561000 -109000l286000 0 0 109000 -419000 0 0 -714000 133000 0 0 605000zm-344000 -59000c7000,0 13000,3000 19000,8000l52000 57000c-29000,36000 -65000,64000 -107000,83000 -42000,19000 -93000,28000 -152000,28000 -53000,0 -101000,-9000 -143000,-27000 -42000,-18000 -79000,-43000 -109000,-75000 -30000,-33000 -52000,-71000 -68000,-116000 -16000,-45000 -24000,-94000 -24000,-147000 0,-53000 9000,-102000 26000,-147000 18000,-45000 43000,-83000 75000,-115000 33000,-33000 71000,-58000 116000,-76000 45000,-18000 95000,-27000 149000,-27000 53000,0 99000,9000 139000,26000 40000,17000 74000,39000 102000,67000l-44000 62000c-3000,4000 -6000,7000 -11000,10000 -4000,3000 -9000,5000 -17000,5000 -7000,0 -15000,-3000 -23000,-9000 -8000,-6000 -18000,-12000 -30000,-19000 -12000,-7000 -28000,-14000 -46000,-20000 -19000,-6000 -42000,-8000 -71000,-8000 -34000,0 -64000,5000 -93000,17000 -28000,12000 -52000,28000 -72000,50000 -20000,22000 -36000,48000 -48000,79000 -11000,32000 -17000,67000 -17000,105000 0,40000 6000,76000 17000,107000 12000,32000 27000,58000 47000,79000 19000,22000 42000,38000 68000,50000 27000,11000 55000,17000 85000,17000 18000,0 35000,-1000 49000,-3000 15000,-2000 28000,-5000 41000,-10000 12000,-4000 24000,-9000 35000,-16000 11000,-7000 22000,-15000 33000,-25000 3000,-3000 6000,-6000 10000,-7000 4000,-2000 8000,-3000 12000,-3000zm-1070000 -189000c0,-39000 -5000,-74000 -15000,-105000 -11000,-31000 -26000,-58000 -45000,-79000 -20000,-22000 -43000,-38000 -71000,-50000 -28000,-11000 -59000,-17000 -94000,-17000l-139000 0 0 503000 139000 0c35000,0 66000,-6000 94000,-18000 28000,-11000 51000,-28000 71000,-49000 19000,-22000 34000,-48000 45000,-79000 10000,-31000 15000,-66000 15000,-106000zm136000 0c0,53000 -9000,101000 -26000,145000 -17000,43000 -42000,81000 -74000,113000 -31000,31000 -69000,56000 -114000,73000 -44000,18000 -93000,26000 -147000,26000l-273000 0 0 -714000 273000 0c54000,0 103000,9000 147000,27000 45000,17000 83000,42000 114000,73000 32000,32000 57000,69000 74000,113000 17000,44000 26000,92000 26000,144000zm-795000 -357000l0 106000 -317000 0 0 198000 249000 0 0 102000 -249000 0 0 202000 317000 0 0 106000 -451000 0 0 -714000 451000 0zm-582000 0l0 109000 -215000 0 0 605000 -133000 0 0 -605000 -215000 0 0 -109000 563000 0zm-1007000 445000l228000 0 -87000 -238000c-4000,-10000 -8000,-23000 -13000,-37000 -5000,-14000 -9000,-30000 -14000,-47000 -5000,17000 -9000,33000 -14000,47000 -4000,15000 -8000,27000 -13000,38000l-87000 237000zm463000 269000l-103000 0c-12000,0 -21000,-3000 -28000,-8000 -8000,-6000 -13000,-13000 -17000,-22000l-53000 -145000 -296000 0 -53000 145000c-3000,8000 -8000,15000 -15000,21000 -8000,6000 -18000,9000 -29000,9000l-103000 0 280000 -714000 136000 0 281000 714000zm-1222000 -374000l83000 0c25000,0 47000,-3000 66000,-9000 18000,-7000 33000,-15000 45000,-26000 12000,-11000 21000,-24000 27000,-40000 6000,-15000 9000,-31000 9000,-49000 0,-37000 -12000,-64000 -36000,-84000 -23000,-19000 -60000,-29000 -109000,-29000l-85000 0 0 237000zm0 95000l0 279000 -133000 0 0 -714000 218000 0c49000,0 91000,5000 125000,15000 35000,10000 63000,25000 86000,43000 22000,18000 38000,39000 49000,65000 10000,25000 15000,52000 15000,83000 0,24000 -3000,46000 -11000,68000 -7000,21000 -17000,41000 -30000,58000 -13000,18000 -30000,33000 -50000,46000 -19000,13000 -41000,24000 -66000,32000 16000,9000 31000,23000 43000,41000l179000 263000 -120000 0c-11000,0 -21000,-2000 -29000,-7000 -8000,-4000 -15000,-11000 -21000,-19000l-150000 -229000c-5000,-9000 -11000,-15000 -18000,-18000 -7000,-4000 -17000,-6000 -30000,-6000l-57000 0zm-582000 182000c30000,0 56000,-3000 78000,-9000 22000,-5000 43000,-12000 63000,-22000l0 -130000 -89000 0c-9000,0 -15000,-2000 -20000,-7000 -5000,-5000 -8000,-11000 -8000,-18000l0 -75000 238000 0 0 289000c-18000,13000 -37000,25000 -57000,35000 -19000,9000 -40000,17000 -62000,23000 -23000,7000 -46000,11000 -72000,15000 -25000,3000 -52000,4000 -82000,4000 -52000,0 -100000,-9000 -143000,-27000 -44000,-18000 -82000,-43000 -114000,-75000 -32000,-33000 -57000,-71000 -75000,-116000 -18000,-45000 -27000,-94000 -27000,-147000 0,-53000 9000,-103000 27000,-147000 17000,-45000 42000,-84000 74000,-116000 32000,-32000 71000,-57000 117000,-75000 45000,-18000 97000,-27000 154000,-27000 58000,0 108000,9000 151000,26000 43000,18000 79000,40000 108000,68000l-38000 60000c-8000,12000 -18000,18000 -30000,18000 -8000,0 -16000,-2000 -24000,-8000 -11000,-6000 -22000,-12000 -33000,-18000 -11000,-7000 -23000,-12000 -36000,-17000 -14000,-4000 -29000,-8000 -45000,-11000 -17000,-3000 -36000,-4000 -58000,-4000 -35000,0 -67000,5000 -95000,17000 -29000,12000 -53000,29000 -73000,51000 -20000,22000 -36000,49000 -47000,80000 -10000,31000 -16000,65000 -16000,103000 0,41000 6000,78000 17000,110000 12000,32000 28000,59000 49000,81000 21000,22000 45000,39000 74000,51000 29000,12000 60000,18000 94000,18000zm-472000 -617000l0 106000 -317000 0 0 198000 250000 0 0 102000 -250000 0 0 202000 317000 0 0 106000 -451000 0 0 -714000 451000 0zm-582000 0l0 109000 -215000 0 0 605000 -133000 0 0 -605000 -215000 0 0 -109000 563000 0zm-1212000 1000c4000,1000 7000,2000 10000,3000 4000,2000 7000,4000 10000,6000 3000,3000 6000,7000 9000,12000l375000 477000c-1000,-11000 -2000,-23000 -2000,-34000 -1000,-11000 -1000,-21000 -1000,-31000l0 -434000 117000 0 0 714000 -69000 0c-10000,0 -19000,-1000 -26000,-5000 -7000,-3000 -14000,-9000 -20000,-17000l-374000 -476000c1000,11000 2000,21000 3000,31000 0,11000 0,20000 0,29000l0 438000 -117000 0 0 -714000 70000 0c6000,0 11000,1000 15000,1000z"/>
 </g>
</svg>
